# xmcd
#
# Track frame offsets:
#	150
#	18829
#	57589
#	92545
#	131220
#	176800
#	210889
#	237958
#
# Disc length: 3631 seconds
#
# Revision: 1
# Processed by: cddbd v1.4PL0 Copyright (c) Steve Scherf et al.
# Submitted via: EasyCDDAExtractor 5.0.7
#
DISCID=660e2d08
DTITLE=Lonnie Gordon - Dirty Love
DYEAR=1900
DGENRE=
TTITLE0=Dirty Love(Dirty Love Radio Mix)
TTITLE1=Dirty Love(Club Love)
TTITLE2=Dirty Love(Disco Tech Mix)
TTITLE3=Dirty Love(Down And Dirty Tribe Mix)
TTITLE4=Dirty Love(The Dirty Dark Side)
TTITLE5=Dirty Love(Steppin Out)
TTITLE6=Dirty Love(Dirty Dub)
TTITLE7=Dirty Love(Instrumental)
EXTD=
EXTT0=
EXTT1=
EXTT2=
EXTT3=
EXTT4=
EXTT5=
EXTT6=
EXTT7=
PLAYORDER=
